Beautifully photographed, this comedy drama from Jean Renoir  chronicles the revival of Paris' most notorious dance as it tells the story of a theater producer who turns a humble washerwoman into a star at the Moulin Rouge. The film is also title Only the French Can.

   General
      Complete name : French.Cancan.1954.720p.BluRay.x264-CiNEFiLE.mkv
      Format : Matroska
      File size : 4.37 GiB
      Duration : 1h 43mn
      Overall bit rate : 6 040 Kbps
      Encoded date : UTC 2010-08-31 17:16:36
      Writing application : mkvmerge v4.1.1 ('Bouncin' Back') built on Jul  3 2010 22:54:08
      Writing library : libebml v1.0.0 + libmatroska v1.0.0
   Video #1
      ID : 1
      Format : AVC
      Format/Info : Advanced Video Codec
      Format profile : High@L4.1
      Format settings, CABAC : Yes
      Format settings, ReFrames : 5 frames
      Muxing mode : Container profile=Unknown@4.1
      Codec ID : V_MPEG4/ISO/AVC
      Duration : 1h 43mn
      Bit rate : 5 165 Kbps
      Nominal bit rate : 5 269 Kbps
      Width : 960 pixels
      Height : 720 pixels
      Display aspect ratio : 4:3
      Frame rate : 24.000 fps
      Resolution : 24 bits
      Colorimetry : 4:2:0
      Scan type : Progressive
      Bits/(Pixel*Frame) : 0.311
      Stream size : 3.74 GiB (86%)
      Writing library : x264 core 104 r1703 cd21d05
      Language : French
   Audio #2
      ID : 2
      Format : DTS
      Format/Info : Digital Theater Systems
      Codec ID : A_DTS
      Duration : 1h 43mn
      Bit rate mode : Constant
      Bit rate : 755 Kbps
      Channel(s) : 1 channel
      Channel positions : Mono
      Sampling rate : 48.0 KHz
      Resolution : 24 bits
      Stream size : 559 MiB (12%)
      Language : French
   Text #3
      ID : 3
      Format : UTF-8
      Codec ID : S_TEXT/UTF8
      Codec ID/Info : UTF-8 Plain Text
 
http://www.imdb.com/title/tt0046998/

French audio; English subtitle in the mkv, Portuguese srt subtitle

French.Cancan.1954.720p.BluRay.x264-CiNEFiLE